HIERARCHY
ROOT SpineBase
{
  OFFSET 0.000000 0.000000 0.000000
  CHANNELS 6 Xposition Yposition Zposition Zrotation Xrotation Yrotation
  JOINT SpineMid
  {
    OFFSET 0.000000 32.148142 -0.000000
    CHANNELS 3 Zrotation Xrotation Yrotation
    JOINT SpineShoulder
    {
      OFFSET -0.294570 23.626391 -0.809517
      CHANNELS 3 Zrotation Xrotation Yrotation
      JOINT Neck
      {
        OFFSET -0.162456 7.830327 -0.619073
        CHANNELS 3 Zrotation Xrotation Yrotation
        JOINT Head
        {
          OFFSET -1.432994 11.298501 3.992461
          CHANNELS 3 Zrotation Xrotation Yrotation
          End Site
          {
            OFFSET 0 0 0
          }
        }
      }
      JOINT ShoulderLeft
      {
        OFFSET -5.336522 -9.012696 11.554068
        CHANNELS 3 Zrotation Xrotation Yrotation
        JOINT ElbowLeft
        {
          OFFSET -5.741984 -16.710362 -20.960265
          CHANNELS 3 Zrotation Xrotation Yrotation
          JOINT WristLeft
          {
            OFFSET -8.860240 -24.140658 3.169596
            CHANNELS 3 Zrotation Xrotation Yrotation
            JOINT HandLeft
            {
              OFFSET -0.317325 -5.294424 1.100081
              CHANNELS 3 Zrotation Xrotation Yrotation
              JOINT HandTipLeft
              {
                OFFSET -2.469242 -5.516836 1.578201
                CHANNELS 3 Zrotation Xrotation Yrotation
                End Site
                {
                  OFFSET 0 0 0
                }
              }
              JOINT ThumbLeft
              {
                OFFSET 2.957735 0.865254 -1.913043
                CHANNELS 3 Zrotation Xrotation Yrotation
                End Site
                {
                  OFFSET 0 0 0
                }
              }
            }
          }
        }
      }
      JOINT ShoulderRight
      {
        OFFSET -0.352851 -3.720592 -9.652729
        CHANNELS 3 Zrotation Xrotation Yrotation
        JOINT ElbowRight
        {
          OFFSET -11.055519 -23.730996 -4.261049
          CHANNELS 3 Zrotation Xrotation Yrotation
          JOINT WristRight
          {
            OFFSET -7.505184 -18.243628 4.989086
            CHANNELS 3 Zrotation Xrotation Yrotation
            JOINT HandRight
            {
              OFFSET -0.841621 -7.782341 2.979207
              CHANNELS 3 Zrotation Xrotation Yrotation
              JOINT HandTipRight
              {
                OFFSET -2.469287 -5.758250 1.061246
                CHANNELS 3 Zrotation Xrotation Yrotation
                End Site
                {
                  OFFSET 0 0 0
                }
              }
              JOINT ThumbRight
              {
                OFFSET 1.714850 -0.848966 -1.788789
                CHANNELS 3 Zrotation Xrotation Yrotation
                End Site
                {
                  OFFSET 0 0 0
                }
              }
            }
          }
        }
      }
    }
  }
  JOINT HipLeft
  {
    OFFSET -2.174150 1.473197 -1.759708
    CHANNELS 3 Zrotation Xrotation Yrotation
    JOINT KneeLeft
    {
      OFFSET -2.457373 -31.159518 -5.399746
      CHANNELS 3 Zrotation Xrotation Yrotation
      JOINT AnkleLeft
      {
        OFFSET 3.980498 -22.601044 -17.734532
        CHANNELS 3 Zrotation Xrotation Yrotation
        JOINT FootLeft
        {
          OFFSET -5.139686 -2.930597 8.109481
          CHANNELS 3 Zrotation Xrotation Yrotation
          End Site
          {
            OFFSET 0 0 0
          }
        }
      }
    }
  }
  JOINT HipRight
  {
    OFFSET 0.615076 1.511783 -4.121464
    CHANNELS 3 Zrotation Xrotation Yrotation
    JOINT KneeRight
    {
      OFFSET 0.853902 -25.829649 -1.092068
      CHANNELS 3 Zrotation Xrotation Yrotation
      JOINT AnkleRight
      {
        OFFSET -5.295960 -38.367074 -3.887308
        CHANNELS 3 Zrotation Xrotation Yrotation
        JOINT FootRight
        {
          OFFSET -6.615445 7.830362 -3.115539
          CHANNELS 3 Zrotation Xrotation Yrotation
          End Site
          {
            OFFSET 0 0 0
          }
        }
      }
    }
  }
}
MOTION
Frames: 11
Frame Time: 0.033333
58.075509 64.296229 209.938721 5.394133 -1.817972 60.842535 -0.682627 1.447589 -60.619462 -1.614285 0.668597 0.053346 1.091077 -1.287329 -1.581796 0.000000 0.000000 0.000000 -0.401429 -2.689500 -1.106316 1.029880 6.418562 0.202170 -11.367466 20.073893 -1.348030 16.092345 -36.342015 15.766218 0.000000 0.000000 0.000000 0.000000 0.000000 0.000000 -1.078463 3.981853 -1.742298 5.137751 1.095655 1.755374 -12.014685 2.194805 -3.323532 14.326116 -7.869002 6.890445 0.000000 0.000000 0.000000 0.000000 0.000000 0.000000 0.406040 14.222252 -60.211025 5.452813 -8.020062 0.017114 2.153554 5.496842 -4.078675 0.000000 0.000000 0.000000 -26.935223 36.428654 -49.318761 61.087001 5.948608 -6.892087 83.318038 -9.105420 34.968726 0.000000 0.000000 0.000000
58.630258 64.242051 210.342270 5.827857 -2.084465 64.922323 -0.554386 1.391423 -64.663438 -1.590547 0.567823 0.077431 0.619759 -1.473447 -1.716575 0.000000 0.000000 0.000000 -1.686900 0.181816 -1.068135 1.805989 5.035214 -0.251758 -11.710644 17.744774 -1.169846 12.284586 -36.829165 13.192337 0.000000 0.000000 0.000000 0.000000 0.000000 0.000000 -0.153769 4.273865 -2.076594 2.774041 0.925305 1.778471 -12.601992 1.159698 -3.615360 14.096302 -6.859208 6.739857 0.000000 0.000000 0.000000 0.000000 0.000000 0.000000 1.689157 15.816222 -64.360834 6.515039 -7.723809 0.096015 1.116993 3.072360 -3.888101 0.000000 0.000000 0.000000 -23.953760 39.916640 -53.424540 61.347623 4.761857 -6.049357 72.830624 -5.357158 31.192334 0.000000 0.000000 0.000000
59.208951 64.251652 210.639027 6.252923 -2.290611 67.646478 -0.320101 1.310866 -67.359860 -1.298460 0.498802 0.118255 0.150987 -2.072684 -1.999387 0.000000 0.000000 0.000000 -2.823059 1.203845 -1.077189 2.036098 3.655024 -0.057685 -14.070476 21.313587 -1.342062 11.076096 -42.440852 12.459215 0.000000 0.000000 0.000000 0.000000 0.000000 0.000000 0.713586 4.239949 -2.459496 0.054720 0.810351 1.778060 -13.339247 -0.747825 -3.965956 11.798371 -6.248087 6.387859 0.000000 0.000000 0.000000 0.000000 0.000000 0.000000 2.381788 17.595887 -67.009519 7.821236 -8.296000 -0.010055 -0.204195 -0.043623 -1.613919 0.000000 0.000000 0.000000 -24.044092 43.560201 -54.928667 62.378457 3.793047 -5.612016 63.930607 -8.571565 27.333937 0.000000 0.000000 0.000000
59.699325 64.201895 210.504538 6.605688 -2.367064 61.487322 -0.740763 1.236173 -61.163099 -0.942991 0.327273 0.150885 -0.159760 -3.395752 -2.331424 0.000000 0.000000 0.000000 -2.368745 -0.724299 -1.630793 0.786066 4.448430 1.047331 -12.128190 18.704485 -1.631671 6.370643 -36.394599 8.691356 0.000000 0.000000 0.000000 0.000000 0.000000 0.000000 1.492323 4.230105 -2.586595 -2.659854 0.958827 1.491525 -13.982481 -1.662708 -4.413043 9.530885 -6.658059 6.412161 0.000000 0.000000 0.000000 0.000000 0.000000 0.000000 -0.355459 17.663660 -60.337448 7.892560 -7.002340 -0.098893 -0.423831 -0.497387 -1.942504 0.000000 0.000000 0.000000 -32.440135 42.730875 -45.230885 63.464283 3.298450 -5.549742 58.001294 -23.927835 22.785142 0.000000 0.000000 0.000000
59.727115 64.833617 210.095936 6.306257 -2.539587 55.356710 -0.987148 0.605549 -55.020451 -0.755075 -0.055586 0.170475 -0.067285 -5.511180 -2.794534 0.000000 0.000000 0.000000 -1.085965 -3.542236 -2.340811 -1.042813 5.682055 2.788458 -9.270045 17.383107 -2.028913 2.816218 -32.207364 6.950305 0.000000 0.000000 0.000000 0.000000 0.000000 0.000000 2.096670 4.707943 -2.616554 -5.116955 0.773344 1.221494 -14.658799 -1.165390 -4.997648 6.818417 -8.892107 6.732484 0.000000 0.000000 0.000000 0.000000 0.000000 0.000000 -2.585742 15.769037 -53.872856 8.442233 -1.334684 -0.446817 4.079540 6.241294 -6.571499 0.000000 0.000000 0.000000 -37.989606 39.023943 -38.019265 62.109973 3.018011 -5.507787 51.644991 -34.027091 16.573174 0.000000 0.000000 0.000000
59.685393 65.257138 209.949894 5.726797 -3.294200 45.253962 -0.749592 -0.121378 -44.914506 -0.659467 -0.297938 0.179485 0.307049 -8.033553 -3.361945 0.000000 0.000000 0.000000 0.607234 -7.629478 -2.866984 -3.180582 7.720757 4.847519 -10.537913 17.366426 -2.747690 7.507444 -24.798394 7.680947 0.000000 0.000000 0.000000 0.000000 0.000000 0.000000 2.438262 6.209372 -3.007594 -6.952372 -0.195092 1.264354 -15.290395 0.161626 -5.498520 5.833650 -10.596506 6.991268 0.000000 0.000000 0.000000 0.000000 0.000000 0.000000 -3.868147 13.202269 -43.801178 6.537121 0.434357 -0.134423 9.844299 14.620533 -15.674834 0.000000 0.000000 0.000000 -42.832171 33.351013 -28.059194 60.824573 1.430386 -4.566533 47.683175 -41.512479 11.163763 0.000000 0.000000 0.000000
58.796694 65.132289 209.645372 4.221479 -4.581039 33.539538 -0.313561 -0.621102 -33.268887 -0.526187 -0.432155 0.135832 0.787435 -10.978669 -3.707198 0.000000 0.000000 0.000000 3.684339 -12.748547 -3.333609 -5.692481 10.809774 7.420225 -15.173600 20.216302 -3.248729 16.952372 -19.483027 9.998131 0.000000 0.000000 0.000000 0.000000 0.000000 0.000000 3.349329 7.675893 -3.080633 -8.958826 -1.416778 1.142368 -16.494922 2.647114 -6.270636 7.528584 -10.163597 7.409987 0.000000 0.000000 0.000000 0.000000 0.000000 0.000000 -2.864048 9.488449 -32.621173 2.696792 0.045079 0.449530 16.771186 23.594373 -37.778807 0.000000 0.000000 0.000000 -45.718418 26.212141 -17.982947 61.214784 0.008610 -3.860548 46.630909 -48.565937 8.561609 0.000000 0.000000 0.000000
57.717140 64.810792 209.497454 2.574582 -5.882690 20.375219 0.141347 -0.794338 -20.227470 -0.361203 -0.598781 0.071835 1.062468 -14.765029 -4.036381 0.000000 0.000000 0.000000 7.643856 -17.997574 -4.699159 -7.607537 13.555411 11.337524 -30.616135 23.395355 -2.228207 34.992836 -12.177447 13.833676 0.000000 0.000000 0.000000 0.000000 0.000000 0.000000 3.990395 9.144178 -2.990335 -9.410886 -1.973217 0.973404 -19.621128 1.702882 -7.636052 12.092047 -6.163438 8.445507 0.000000 0.000000 0.000000 0.000000 0.000000 0.000000 -0.372520 6.408823 -20.222055 -2.699351 -2.672839 1.620995 -1.389529 28.997147 -102.427710 0.000000 0.000000 0.000000 -47.965647 19.269130 -6.770467 63.443204 -2.696566 -2.379437 52.775970 -58.674890 11.166869 0.000000 0.000000 0.000000
55.968190 63.640428 209.123188 0.102337 -7.994167 11.260899 0.508316 -0.685719 -11.375921 -0.198020 -0.576082 -0.047517 1.268522 -17.840989 -4.141630 0.000000 0.000000 0.000000 11.666540 -23.147266 -4.486474 -10.841625 17.094062 14.009169 -40.440877 25.514856 -0.162126 46.097624 -6.067414 14.701964 0.000000 0.000000 0.000000 0.000000 0.000000 0.000000 4.097010 10.506272 -2.096507 -9.406462 -1.992733 0.131691 -21.619279 2.340717 -8.571861 15.191553 -4.244659 9.319003 0.000000 0.000000 0.000000 0.000000 0.000000 0.000000 4.270011 5.389089 -12.090890 -7.051608 -6.385821 2.018699 -47.105791 30.023103 -96.888751 0.000000 0.000000 0.000000 -46.339181 14.484551 0.662291 65.977935 -2.680656 -2.231288 78.632040 -62.550142 32.414219 0.000000 0.000000 0.000000
53.804774 61.857680 208.624093 -2.759160 -10.436557 4.853760 0.680342 -0.397926 -5.379896 -0.042834 -0.386744 -0.191981 1.228441 -20.180703 -4.046262 0.000000 0.000000 0.000000 14.988085 -26.011338 -3.356431 -14.599746 19.956941 15.269161 -44.298689 25.750871 1.175138 51.290016 -1.929315 14.016530 0.000000 0.000000 0.000000 0.000000 0.000000 0.000000 3.464956 11.434436 -0.469612 -8.379715 -1.156137 -1.224028 -22.671794 2.540653 -9.166477 18.231645 0.205251 9.372515 0.000000 0.000000 0.000000 0.000000 0.000000 0.000000 9.698466 5.822334 -7.091073 -10.890455 -11.414470 1.906701 -74.769242 12.152539 -76.893492 0.000000 0.000000 0.000000 -41.926210 11.673251 5.717332 65.228463 -1.530103 -2.791774 102.275571 -56.739152 50.140993 0.000000 0.000000 0.000000
51.277082 59.680290 208.071870 -5.772365 -12.543074 0.519584 0.799264 0.072807 -1.561483 -0.000837 0.052481 -0.315927 0.715309 -22.988959 -3.848733 0.000000 0.000000 0.000000 17.020073 -25.206663 -2.063116 -17.186153 21.858919 14.174783 -43.725878 21.975570 -0.027487 52.212176 2.550710 11.661750 0.000000 0.000000 0.000000 0.000000 0.000000 0.000000 3.341565 11.141079 1.286172 -7.886447 -0.183748 -2.620101 -22.607529 3.559647 -9.272100 21.110828 2.716788 9.687474 0.000000 0.000000 0.000000 0.000000 0.000000 0.000000 15.446656 7.104758 -4.700366 -16.094857 -20.292460 2.158728 -90.635223 -18.745568 -62.310740 0.000000 0.000000 0.000000 -37.707285 10.299134 9.159527 66.186968 5.090429 -5.627902 96.772139 -25.711806 45.372193 0.000000 0.000000 0.000000
